<mxfile host="Electron" modified="2023-07-23T14:01:16.516Z" agent="Mozilla/5.0 (X11; Linux x86_64) AppleWebKit/537.36 (KHTML, like Gecko) draw.io/21.3.7 Chrome/112.0.5615.204 Electron/24.5.0 Safari/537.36" etag="soK0gt8maRLiVS1ZMCb3" version="21.3.7" type="device" pages="8">
  <diagram id="SJzbT1muIVe0b5rZHbIV" name="order-of-plugins">
    <mxGraphModel dx="3354" dy="1834" grid="1" gridSize="10" guides="1" tooltips="1" connect="1" arrows="1" fold="1" page="1" pageScale="1" pageWidth="850" pageHeight="1100" math="0" shadow="0">
      <root>
        <mxCell id="0" />
        <mxCell id="1" parent="0" />
        <mxCell id="MW1WEGzg5JTxpdZGw1k8-4" value="Plugin1" style="rounded=0;whiteSpace=wrap;html=1;verticalAlign=top;" parent="1" vertex="1">
          <mxGeometry x="60" y="40" width="100" height="100" as="geometry" />
        </mxCell>
        <mxCell id="MW1WEGzg5JTxpdZGw1k8-5" value="before()" style="shape=process;whiteSpace=wrap;html=1;backgroundOutline=1;size=0.125;dashed=1;" parent="1" vertex="1">
          <mxGeometry x="70" y="70" width="80" height="20" as="geometry" />
        </mxCell>
        <mxCell id="MW1WEGzg5JTxpdZGw1k8-6" value="after()" style="shape=process;whiteSpace=wrap;html=1;backgroundOutline=1;size=0.125;" parent="1" vertex="1">
          <mxGeometry x="70" y="110" width="80" height="20" as="geometry" />
        </mxCell>
        <mxCell id="MW1WEGzg5JTxpdZGw1k8-10" value="" style="endArrow=none;html=1;rounded=0;" parent="1" edge="1">
          <mxGeometry width="50" height="50" relative="1" as="geometry">
            <mxPoint x="40" y="140" as="sourcePoint" />
            <mxPoint x="40" as="targetPoint" />
          </mxGeometry>
        </mxCell>
        <mxCell id="MW1WEGzg5JTxpdZGw1k8-11" value="EXCEPTION_HANDLING&lt;br style=&quot;font-size: 12px;&quot;&gt;(-7)" style="text;html=1;strokeColor=none;fillColor=none;align=center;verticalAlign=middle;whiteSpace=wrap;rounded=0;fontSize=12;fontStyle=1" parent="1" vertex="1">
          <mxGeometry x="40" width="140" height="30" as="geometry" />
        </mxCell>
        <mxCell id="MW1WEGzg5JTxpdZGw1k8-12" value="Plugin2" style="rounded=0;whiteSpace=wrap;html=1;verticalAlign=top;" parent="1" vertex="1">
          <mxGeometry x="200" y="40" width="100" height="100" as="geometry" />
        </mxCell>
        <mxCell id="MW1WEGzg5JTxpdZGw1k8-13" value="before()" style="shape=process;whiteSpace=wrap;html=1;backgroundOutline=1;size=0.125;dashed=1;" parent="1" vertex="1">
          <mxGeometry x="210" y="70" width="80" height="20" as="geometry" />
        </mxCell>
        <mxCell id="MW1WEGzg5JTxpdZGw1k8-14" value="after()" style="shape=process;whiteSpace=wrap;html=1;backgroundOutline=1;size=0.125;" parent="1" vertex="1">
          <mxGeometry x="210" y="110" width="80" height="20" as="geometry" />
        </mxCell>
        <mxCell id="MW1WEGzg5JTxpdZGw1k8-15" value="" style="endArrow=none;html=1;rounded=0;" parent="1" edge="1">
          <mxGeometry width="50" height="50" relative="1" as="geometry">
            <mxPoint x="180" y="140" as="sourcePoint" />
            <mxPoint x="180" as="targetPoint" />
          </mxGeometry>
        </mxCell>
        <mxCell id="MW1WEGzg5JTxpdZGw1k8-16" value="..." style="text;html=1;strokeColor=none;fillColor=none;align=center;verticalAlign=middle;whiteSpace=wrap;rounded=0;fontSize=12;fontStyle=1" parent="1" vertex="1">
          <mxGeometry x="180" width="140" height="30" as="geometry" />
        </mxCell>
        <mxCell id="MW1WEGzg5JTxpdZGw1k8-17" value="Plugin3" style="rounded=0;whiteSpace=wrap;html=1;verticalAlign=top;" parent="1" vertex="1">
          <mxGeometry x="340" y="40" width="100" height="100" as="geometry" />
        </mxCell>
        <mxCell id="MW1WEGzg5JTxpdZGw1k8-18" value="before()" style="shape=process;whiteSpace=wrap;html=1;backgroundOutline=1;size=0.125;dashed=1;" parent="1" vertex="1">
          <mxGeometry x="350" y="70" width="80" height="20" as="geometry" />
        </mxCell>
        <mxCell id="MW1WEGzg5JTxpdZGw1k8-19" value="after()" style="shape=process;whiteSpace=wrap;html=1;backgroundOutline=1;size=0.125;" parent="1" vertex="1">
          <mxGeometry x="350" y="110" width="80" height="20" as="geometry" />
        </mxCell>
        <mxCell id="MW1WEGzg5JTxpdZGw1k8-20" value="" style="endArrow=none;html=1;rounded=0;" parent="1" edge="1">
          <mxGeometry width="50" height="50" relative="1" as="geometry">
            <mxPoint x="320" y="140" as="sourcePoint" />
            <mxPoint x="320" as="targetPoint" />
          </mxGeometry>
        </mxCell>
        <mxCell id="MW1WEGzg5JTxpdZGw1k8-21" value="AFTER_TARGET&lt;br style=&quot;font-size: 12px;&quot;&gt;(-4)" style="text;html=1;strokeColor=none;fillColor=none;align=center;verticalAlign=middle;whiteSpace=wrap;rounded=0;fontSize=12;fontStyle=1" parent="1" vertex="1">
          <mxGeometry x="320" width="140" height="30" as="geometry" />
        </mxCell>
        <mxCell id="MW1WEGzg5JTxpdZGw1k8-22" value="Plugin4" style="rounded=0;whiteSpace=wrap;html=1;verticalAlign=top;" parent="1" vertex="1">
          <mxGeometry x="480" y="40" width="100" height="100" as="geometry" />
        </mxCell>
        <mxCell id="MW1WEGzg5JTxpdZGw1k8-23" value="before()" style="shape=process;whiteSpace=wrap;html=1;backgroundOutline=1;size=0.125;" parent="1" vertex="1">
          <mxGeometry x="490" y="70" width="80" height="20" as="geometry" />
        </mxCell>
        <mxCell id="MW1WEGzg5JTxpdZGw1k8-24" value="after()" style="shape=process;whiteSpace=wrap;html=1;backgroundOutline=1;size=0.125;dashed=1;" parent="1" vertex="1">
          <mxGeometry x="490" y="110" width="80" height="20" as="geometry" />
        </mxCell>
        <mxCell id="MW1WEGzg5JTxpdZGw1k8-25" value="" style="endArrow=none;html=1;rounded=0;" parent="1" edge="1">
          <mxGeometry width="50" height="50" relative="1" as="geometry">
            <mxPoint x="460" y="140" as="sourcePoint" />
            <mxPoint x="460" as="targetPoint" />
          </mxGeometry>
        </mxCell>
        <mxCell id="MW1WEGzg5JTxpdZGw1k8-26" value="ARG_INITIALIZATION&lt;br style=&quot;font-size: 12px;&quot;&gt;(0)" style="text;html=1;strokeColor=none;fillColor=none;align=center;verticalAlign=middle;whiteSpace=wrap;rounded=0;fontSize=12;fontStyle=1" parent="1" vertex="1">
          <mxGeometry x="460" width="140" height="30" as="geometry" />
        </mxCell>
        <mxCell id="MW1WEGzg5JTxpdZGw1k8-27" value="Plugin5" style="rounded=0;whiteSpace=wrap;html=1;verticalAlign=top;" parent="1" vertex="1">
          <mxGeometry x="620" y="40" width="100" height="100" as="geometry" />
        </mxCell>
        <mxCell id="MW1WEGzg5JTxpdZGw1k8-28" value="before()" style="shape=process;whiteSpace=wrap;html=1;backgroundOutline=1;size=0.125;" parent="1" vertex="1">
          <mxGeometry x="630" y="70" width="80" height="20" as="geometry" />
        </mxCell>
        <mxCell id="MW1WEGzg5JTxpdZGw1k8-29" value="after()" style="shape=process;whiteSpace=wrap;html=1;backgroundOutline=1;size=0.125;dashed=1;" parent="1" vertex="1">
          <mxGeometry x="630" y="110" width="80" height="20" as="geometry" />
        </mxCell>
        <mxCell id="MW1WEGzg5JTxpdZGw1k8-30" value="" style="endArrow=none;html=1;rounded=0;" parent="1" edge="1">
          <mxGeometry width="50" height="50" relative="1" as="geometry">
            <mxPoint x="600" y="140" as="sourcePoint" />
            <mxPoint x="600" as="targetPoint" />
          </mxGeometry>
        </mxCell>
        <mxCell id="MW1WEGzg5JTxpdZGw1k8-31" value="..." style="text;html=1;strokeColor=none;fillColor=none;align=center;verticalAlign=middle;whiteSpace=wrap;rounded=0;fontSize=12;fontStyle=1" parent="1" vertex="1">
          <mxGeometry x="600" width="140" height="30" as="geometry" />
        </mxCell>
        <mxCell id="MW1WEGzg5JTxpdZGw1k8-32" value="Plugin6" style="rounded=0;whiteSpace=wrap;html=1;verticalAlign=top;" parent="1" vertex="1">
          <mxGeometry x="760" y="40" width="100" height="100" as="geometry" />
        </mxCell>
        <mxCell id="MW1WEGzg5JTxpdZGw1k8-33" value="before()" style="shape=process;whiteSpace=wrap;html=1;backgroundOutline=1;size=0.125;" parent="1" vertex="1">
          <mxGeometry x="770" y="70" width="80" height="20" as="geometry" />
        </mxCell>
        <mxCell id="MW1WEGzg5JTxpdZGw1k8-34" value="after()" style="shape=process;whiteSpace=wrap;html=1;backgroundOutline=1;size=0.125;dashed=1;" parent="1" vertex="1">
          <mxGeometry x="770" y="110" width="80" height="20" as="geometry" />
        </mxCell>
        <mxCell id="MW1WEGzg5JTxpdZGw1k8-35" value="" style="endArrow=none;html=1;rounded=0;" parent="1" edge="1">
          <mxGeometry width="50" height="50" relative="1" as="geometry">
            <mxPoint x="740" y="140" as="sourcePoint" />
            <mxPoint x="740" as="targetPoint" />
          </mxGeometry>
        </mxCell>
        <mxCell id="MW1WEGzg5JTxpdZGw1k8-36" value="BEFORE_TARGET&lt;br style=&quot;font-size: 12px;&quot;&gt;(3)" style="text;html=1;strokeColor=none;fillColor=none;align=center;verticalAlign=middle;whiteSpace=wrap;rounded=0;fontSize=12;fontStyle=1" parent="1" vertex="1">
          <mxGeometry x="740" width="140" height="30" as="geometry" />
        </mxCell>
        <mxCell id="MW1WEGzg5JTxpdZGw1k8-38" value="target()" style="shape=process;whiteSpace=wrap;html=1;backgroundOutline=1;size=0.125;" parent="1" vertex="1">
          <mxGeometry x="900" y="90" width="80" height="20" as="geometry" />
        </mxCell>
        <mxCell id="MW1WEGzg5JTxpdZGw1k8-40" value="" style="endArrow=none;html=1;rounded=0;" parent="1" edge="1">
          <mxGeometry width="50" height="50" relative="1" as="geometry">
            <mxPoint x="880" y="140" as="sourcePoint" />
            <mxPoint x="880" as="targetPoint" />
          </mxGeometry>
        </mxCell>
        <mxCell id="MW1WEGzg5JTxpdZGw1k8-42" value="" style="edgeStyle=none;orthogonalLoop=1;jettySize=auto;html=1;rounded=0;endArrow=open;endFill=0;strokeColor=#FF0000;" parent="1" source="MW1WEGzg5JTxpdZGw1k8-5" target="MW1WEGzg5JTxpdZGw1k8-13" edge="1">
          <mxGeometry width="80" relative="1" as="geometry">
            <mxPoint x="110" y="180" as="sourcePoint" />
            <mxPoint x="190" y="180" as="targetPoint" />
            <Array as="points" />
          </mxGeometry>
        </mxCell>
        <mxCell id="MW1WEGzg5JTxpdZGw1k8-43" value="" style="edgeStyle=none;orthogonalLoop=1;jettySize=auto;html=1;rounded=0;endArrow=open;endFill=0;strokeColor=#FF0000;" parent="1" source="MW1WEGzg5JTxpdZGw1k8-13" target="MW1WEGzg5JTxpdZGw1k8-18" edge="1">
          <mxGeometry width="80" relative="1" as="geometry">
            <mxPoint x="300" y="200" as="sourcePoint" />
            <mxPoint x="340" y="200" as="targetPoint" />
            <Array as="points" />
          </mxGeometry>
        </mxCell>
        <mxCell id="MW1WEGzg5JTxpdZGw1k8-44" value="" style="edgeStyle=none;orthogonalLoop=1;jettySize=auto;html=1;rounded=0;endArrow=open;endFill=0;strokeColor=#FF0000;" parent="1" source="MW1WEGzg5JTxpdZGw1k8-18" target="MW1WEGzg5JTxpdZGw1k8-23" edge="1">
          <mxGeometry width="80" relative="1" as="geometry">
            <mxPoint x="220" y="100" as="sourcePoint" />
            <mxPoint x="260" y="100" as="targetPoint" />
            <Array as="points" />
          </mxGeometry>
        </mxCell>
        <mxCell id="MW1WEGzg5JTxpdZGw1k8-45" value="" style="edgeStyle=none;orthogonalLoop=1;jettySize=auto;html=1;rounded=0;endArrow=open;endFill=0;strokeColor=#FF0000;" parent="1" source="MW1WEGzg5JTxpdZGw1k8-23" target="MW1WEGzg5JTxpdZGw1k8-28" edge="1">
          <mxGeometry width="80" relative="1" as="geometry">
            <mxPoint x="610" y="180" as="sourcePoint" />
            <mxPoint x="650" y="180" as="targetPoint" />
            <Array as="points" />
          </mxGeometry>
        </mxCell>
        <mxCell id="MW1WEGzg5JTxpdZGw1k8-46" value="" style="edgeStyle=none;orthogonalLoop=1;jettySize=auto;html=1;rounded=0;endArrow=open;endFill=0;strokeColor=#FF0000;" parent="1" source="MW1WEGzg5JTxpdZGw1k8-28" target="MW1WEGzg5JTxpdZGw1k8-33" edge="1">
          <mxGeometry width="80" relative="1" as="geometry">
            <mxPoint x="650" y="220" as="sourcePoint" />
            <mxPoint x="690" y="220" as="targetPoint" />
            <Array as="points" />
          </mxGeometry>
        </mxCell>
        <mxCell id="MW1WEGzg5JTxpdZGw1k8-47" value="" style="edgeStyle=none;orthogonalLoop=1;jettySize=auto;html=1;rounded=0;endArrow=open;endFill=0;strokeColor=#FF0000;" parent="1" source="MW1WEGzg5JTxpdZGw1k8-33" target="MW1WEGzg5JTxpdZGw1k8-38" edge="1">
          <mxGeometry width="80" relative="1" as="geometry">
            <mxPoint x="310" y="130" as="sourcePoint" />
            <mxPoint x="350" y="130" as="targetPoint" />
            <Array as="points" />
          </mxGeometry>
        </mxCell>
        <mxCell id="MW1WEGzg5JTxpdZGw1k8-48" value="" style="edgeStyle=none;orthogonalLoop=1;jettySize=auto;html=1;rounded=0;endArrow=open;endFill=0;strokeColor=#FF0000;" parent="1" source="MW1WEGzg5JTxpdZGw1k8-38" target="MW1WEGzg5JTxpdZGw1k8-34" edge="1">
          <mxGeometry width="80" relative="1" as="geometry">
            <mxPoint x="320" y="140" as="sourcePoint" />
            <mxPoint x="360" y="140" as="targetPoint" />
            <Array as="points" />
          </mxGeometry>
        </mxCell>
        <mxCell id="MW1WEGzg5JTxpdZGw1k8-49" value="" style="edgeStyle=none;orthogonalLoop=1;jettySize=auto;html=1;rounded=0;endArrow=open;endFill=0;strokeColor=#FF0000;" parent="1" source="MW1WEGzg5JTxpdZGw1k8-34" target="MW1WEGzg5JTxpdZGw1k8-29" edge="1">
          <mxGeometry width="80" relative="1" as="geometry">
            <mxPoint x="310" y="150" as="sourcePoint" />
            <mxPoint x="350" y="150" as="targetPoint" />
            <Array as="points" />
          </mxGeometry>
        </mxCell>
        <mxCell id="MW1WEGzg5JTxpdZGw1k8-50" value="" style="edgeStyle=none;orthogonalLoop=1;jettySize=auto;html=1;rounded=0;endArrow=open;endFill=0;strokeColor=#FF0000;" parent="1" source="MW1WEGzg5JTxpdZGw1k8-29" target="MW1WEGzg5JTxpdZGw1k8-24" edge="1">
          <mxGeometry width="80" relative="1" as="geometry">
            <mxPoint x="300" y="160" as="sourcePoint" />
            <mxPoint x="340" y="160" as="targetPoint" />
            <Array as="points" />
          </mxGeometry>
        </mxCell>
        <mxCell id="MW1WEGzg5JTxpdZGw1k8-51" value="" style="edgeStyle=none;orthogonalLoop=1;jettySize=auto;html=1;rounded=0;endArrow=open;endFill=0;strokeColor=#FF0000;" parent="1" source="MW1WEGzg5JTxpdZGw1k8-24" target="MW1WEGzg5JTxpdZGw1k8-19" edge="1">
          <mxGeometry width="80" relative="1" as="geometry">
            <mxPoint x="290" y="170" as="sourcePoint" />
            <mxPoint x="330" y="170" as="targetPoint" />
            <Array as="points" />
          </mxGeometry>
        </mxCell>
        <mxCell id="MW1WEGzg5JTxpdZGw1k8-52" value="" style="edgeStyle=none;orthogonalLoop=1;jettySize=auto;html=1;rounded=0;endArrow=open;endFill=0;strokeColor=#FF0000;" parent="1" source="MW1WEGzg5JTxpdZGw1k8-19" target="MW1WEGzg5JTxpdZGw1k8-14" edge="1">
          <mxGeometry width="80" relative="1" as="geometry">
            <mxPoint x="280" y="180" as="sourcePoint" />
            <mxPoint x="320" y="180" as="targetPoint" />
            <Array as="points" />
          </mxGeometry>
        </mxCell>
        <mxCell id="MW1WEGzg5JTxpdZGw1k8-53" value="" style="edgeStyle=none;orthogonalLoop=1;jettySize=auto;html=1;rounded=0;endArrow=open;endFill=0;strokeColor=#FF0000;" parent="1" source="MW1WEGzg5JTxpdZGw1k8-14" target="MW1WEGzg5JTxpdZGw1k8-6" edge="1">
          <mxGeometry width="80" relative="1" as="geometry">
            <mxPoint x="250" y="190" as="sourcePoint" />
            <mxPoint x="290" y="190" as="targetPoint" />
            <Array as="points" />
          </mxGeometry>
        </mxCell>
        <mxCell id="MW1WEGzg5JTxpdZGw1k8-54" value="" style="edgeStyle=none;orthogonalLoop=1;jettySize=auto;html=1;rounded=0;endArrow=open;endFill=0;strokeColor=#FF0000;" parent="1" target="MW1WEGzg5JTxpdZGw1k8-5" edge="1">
          <mxGeometry width="80" relative="1" as="geometry">
            <mxPoint x="10" y="80" as="sourcePoint" />
            <mxPoint x="190" y="90" as="targetPoint" />
            <Array as="points" />
          </mxGeometry>
        </mxCell>
        <mxCell id="MW1WEGzg5JTxpdZGw1k8-55" value="" style="edgeStyle=none;orthogonalLoop=1;jettySize=auto;html=1;rounded=0;endArrow=open;endFill=0;strokeColor=#FF0000;" parent="1" source="MW1WEGzg5JTxpdZGw1k8-6" edge="1">
          <mxGeometry width="80" relative="1" as="geometry">
            <mxPoint x="160" y="100" as="sourcePoint" />
            <mxPoint x="10" y="120" as="targetPoint" />
            <Array as="points" />
          </mxGeometry>
        </mxCell>
        <mxCell id="MW1WEGzg5JTxpdZGw1k8-61" value="" style="edgeStyle=none;orthogonalLoop=1;jettySize=auto;html=1;rounded=0;endArrow=open;endFill=0;strokeColor=#0000FF;strokeWidth=2;" parent="1" edge="1">
          <mxGeometry width="80" relative="1" as="geometry">
            <mxPoint x="160" y="50" as="sourcePoint" />
            <mxPoint x="200" y="50" as="targetPoint" />
            <Array as="points" />
          </mxGeometry>
        </mxCell>
        <mxCell id="MW1WEGzg5JTxpdZGw1k8-62" value="" style="edgeStyle=none;orthogonalLoop=1;jettySize=auto;html=1;rounded=0;endArrow=open;endFill=0;strokeColor=#0000FF;strokeWidth=2;" parent="1" edge="1">
          <mxGeometry width="80" relative="1" as="geometry">
            <mxPoint x="40" y="170" as="sourcePoint" />
            <mxPoint x="80" y="170" as="targetPoint" />
            <Array as="points" />
          </mxGeometry>
        </mxCell>
        <mxCell id="MW1WEGzg5JTxpdZGw1k8-63" value="" style="edgeStyle=none;orthogonalLoop=1;jettySize=auto;html=1;rounded=0;endArrow=open;endFill=0;strokeColor=#FF0000;" parent="1" edge="1">
          <mxGeometry width="80" relative="1" as="geometry">
            <mxPoint x="260" y="170" as="sourcePoint" />
            <mxPoint x="300" y="170" as="targetPoint" />
            <Array as="points" />
          </mxGeometry>
        </mxCell>
        <mxCell id="MW1WEGzg5JTxpdZGw1k8-64" value="Order of stages and plugins" style="text;html=1;strokeColor=none;fillColor=none;align=center;verticalAlign=middle;whiteSpace=wrap;rounded=0;fontSize=12;" parent="1" vertex="1">
          <mxGeometry x="80" y="160" width="160" height="20" as="geometry" />
        </mxCell>
        <mxCell id="MW1WEGzg5JTxpdZGw1k8-65" value="Order of methods" style="text;html=1;strokeColor=none;fillColor=none;align=center;verticalAlign=middle;whiteSpace=wrap;rounded=0;fontSize=12;" parent="1" vertex="1">
          <mxGeometry x="300" y="160" width="100" height="20" as="geometry" />
        </mxCell>
        <mxCell id="MW1WEGzg5JTxpdZGw1k8-66" value="" style="shape=process;whiteSpace=wrap;html=1;backgroundOutline=1;size=0.25;" parent="1" vertex="1">
          <mxGeometry x="420" y="160" width="40" height="20" as="geometry" />
        </mxCell>
        <mxCell id="MW1WEGzg5JTxpdZGw1k8-67" value="Main logic part" style="text;html=1;strokeColor=none;fillColor=none;align=center;verticalAlign=middle;whiteSpace=wrap;rounded=0;fontSize=12;" parent="1" vertex="1">
          <mxGeometry x="460" y="160" width="100" height="20" as="geometry" />
        </mxCell>
        <mxCell id="BmBJrQtzcH-q0R5RHmT4-1" value="" style="edgeStyle=none;orthogonalLoop=1;jettySize=auto;html=1;rounded=0;endArrow=open;endFill=0;strokeColor=#0000FF;strokeWidth=2;" parent="1" edge="1">
          <mxGeometry width="80" relative="1" as="geometry">
            <mxPoint x="720" y="50" as="sourcePoint" />
            <mxPoint x="760" y="50" as="targetPoint" />
            <Array as="points" />
          </mxGeometry>
        </mxCell>
        <mxCell id="BmBJrQtzcH-q0R5RHmT4-2" value="" style="edgeStyle=none;orthogonalLoop=1;jettySize=auto;html=1;rounded=0;endArrow=open;endFill=0;strokeColor=#0000FF;strokeWidth=2;" parent="1" edge="1">
          <mxGeometry width="80" relative="1" as="geometry">
            <mxPoint x="580" y="50" as="sourcePoint" />
            <mxPoint x="620" y="50" as="targetPoint" />
            <Array as="points" />
          </mxGeometry>
        </mxCell>
        <mxCell id="BmBJrQtzcH-q0R5RHmT4-3" value="" style="edgeStyle=none;orthogonalLoop=1;jettySize=auto;html=1;rounded=0;endArrow=open;endFill=0;strokeColor=#0000FF;strokeWidth=2;" parent="1" edge="1">
          <mxGeometry width="80" relative="1" as="geometry">
            <mxPoint x="440" y="50" as="sourcePoint" />
            <mxPoint x="480" y="50" as="targetPoint" />
            <Array as="points" />
          </mxGeometry>
        </mxCell>
        <mxCell id="BmBJrQtzcH-q0R5RHmT4-4" value="" style="edgeStyle=none;orthogonalLoop=1;jettySize=auto;html=1;rounded=0;endArrow=open;endFill=0;strokeColor=#0000FF;strokeWidth=2;" parent="1" edge="1">
          <mxGeometry width="80" relative="1" as="geometry">
            <mxPoint x="300" y="50" as="sourcePoint" />
            <mxPoint x="340" y="50" as="targetPoint" />
            <Array as="points" />
          </mxGeometry>
        </mxCell>
      </root>
    </mxGraphModel>
  </diagram>
  <diagram name="ext-package-dependencies" id="HycaH5oWogXyOB8B_7eI">
    <mxGraphModel dx="1434" dy="1950" grid="1" gridSize="10" guides="1" tooltips="1" connect="1" arrows="1" fold="1" page="1" pageScale="1" pageWidth="850" pageHeight="1100" math="0" shadow="0">
      <root>
        <mxCell id="0" />
        <mxCell id="1" parent="0" />
        <mxCell id="GiJMnS7czs1403d4WD7D-1" value="business-service" style="rounded=0;whiteSpace=wrap;html=1;fillColor=#CCFFFF;" parent="1" vertex="1">
          <mxGeometry y="140" width="160" height="40" as="geometry" />
        </mxCell>
        <mxCell id="GiJMnS7czs1403d4WD7D-2" value="business-service" style="rounded=0;whiteSpace=wrap;html=1;fillColor=#CCFFFF;" parent="1" vertex="1">
          <mxGeometry y="40" width="160" height="40" as="geometry" />
        </mxCell>
        <mxCell id="GiJMnS7czs1403d4WD7D-3" value="coframework-api" style="rounded=0;whiteSpace=wrap;html=1;" parent="1" vertex="1">
          <mxGeometry x="240" y="40" width="160" height="40" as="geometry" />
        </mxCell>
        <mxCell id="GiJMnS7czs1403d4WD7D-4" value="coframework-ext-client" style="rounded=0;whiteSpace=wrap;html=1;" parent="1" vertex="1">
          <mxGeometry x="480" y="40" width="160" height="40" as="geometry" />
        </mxCell>
        <mxCell id="GiJMnS7czs1403d4WD7D-5" value="coframework-ext" style="rounded=0;whiteSpace=wrap;html=1;" parent="1" vertex="1">
          <mxGeometry x="480" y="140" width="160" height="40" as="geometry" />
        </mxCell>
        <mxCell id="GiJMnS7czs1403d4WD7D-6" value="" style="edgeStyle=none;orthogonalLoop=1;jettySize=auto;html=1;rounded=0;dashed=1;endArrow=open;endFill=0;" parent="1" source="GiJMnS7czs1403d4WD7D-2" target="GiJMnS7czs1403d4WD7D-3" edge="1">
          <mxGeometry width="80" relative="1" as="geometry">
            <mxPoint x="160" y="60" as="sourcePoint" />
            <mxPoint x="240" y="60" as="targetPoint" />
            <Array as="points" />
          </mxGeometry>
        </mxCell>
        <mxCell id="GiJMnS7czs1403d4WD7D-7" value="" style="edgeStyle=none;orthogonalLoop=1;jettySize=auto;html=1;rounded=0;dashed=1;endArrow=open;endFill=0;" parent="1" source="GiJMnS7czs1403d4WD7D-3" target="GiJMnS7czs1403d4WD7D-4" edge="1">
          <mxGeometry width="80" relative="1" as="geometry">
            <mxPoint x="400" y="60" as="sourcePoint" />
            <mxPoint x="480" y="60" as="targetPoint" />
            <Array as="points" />
          </mxGeometry>
        </mxCell>
        <mxCell id="GiJMnS7czs1403d4WD7D-8" value="" style="edgeStyle=none;orthogonalLoop=1;jettySize=auto;html=1;rounded=0;dashed=1;endArrow=open;endFill=0;" parent="1" source="GiJMnS7czs1403d4WD7D-1" target="GiJMnS7czs1403d4WD7D-5" edge="1">
          <mxGeometry width="80" relative="1" as="geometry">
            <mxPoint x="160" y="160" as="sourcePoint" />
            <mxPoint x="390" y="180" as="targetPoint" />
            <Array as="points" />
          </mxGeometry>
        </mxCell>
        <mxCell id="GiJMnS7czs1403d4WD7D-9" value="" style="edgeStyle=none;orthogonalLoop=1;jettySize=auto;html=1;rounded=0;dashed=1;endArrow=open;endFill=0;" parent="1" source="GiJMnS7czs1403d4WD7D-1" target="GiJMnS7czs1403d4WD7D-2" edge="1">
          <mxGeometry width="80" relative="1" as="geometry">
            <mxPoint x="70" y="110" as="sourcePoint" />
            <mxPoint x="150" y="110" as="targetPoint" />
            <Array as="points" />
          </mxGeometry>
        </mxCell>
        <mxCell id="GiJMnS7czs1403d4WD7D-10" value="" style="edgeStyle=none;orthogonalLoop=1;jettySize=auto;html=1;rounded=0;dashed=1;endArrow=open;endFill=0;" parent="1" source="GiJMnS7czs1403d4WD7D-5" target="GiJMnS7czs1403d4WD7D-4" edge="1">
          <mxGeometry width="80" relative="1" as="geometry">
            <mxPoint x="560" y="120" as="sourcePoint" />
            <mxPoint x="640" y="120" as="targetPoint" />
            <Array as="points" />
          </mxGeometry>
        </mxCell>
        <mxCell id="GiJMnS7czs1403d4WD7D-11" value="Automatic extension registration &amp;amp; routing" style="text;html=1;strokeColor=none;fillColor=none;align=center;verticalAlign=middle;whiteSpace=wrap;rounded=0;" parent="1" vertex="1">
          <mxGeometry x="160" y="120" width="320" height="40" as="geometry" />
        </mxCell>
        <mxCell id="GiJMnS7czs1403d4WD7D-12" value="Dependency of the BizScenarioParam model" style="text;html=1;strokeColor=none;fillColor=none;align=center;verticalAlign=middle;whiteSpace=wrap;rounded=0;" parent="1" vertex="1">
          <mxGeometry x="160" width="320" height="40" as="geometry" />
        </mxCell>
      </root>
    </mxGraphModel>
  </diagram>
  <diagram id="QkO7cNGFEzB6bpAXflhK" name="chain-linear">
    <mxGraphModel dx="1118" dy="611" grid="1" gridSize="10" guides="1" tooltips="1" connect="1" arrows="1" fold="1" page="1" pageScale="1" pageWidth="850" pageHeight="1100" math="0" shadow="0">
      <root>
        <mxCell id="0" />
        <mxCell id="1" parent="0" />
        <mxCell id="eJzGDnPRLoVZgJMi3fUZ-2" value="NodeA" style="rounded=0;whiteSpace=wrap;html=1;" vertex="1" parent="1">
          <mxGeometry x="40" y="40" width="80" height="40" as="geometry" />
        </mxCell>
        <mxCell id="eJzGDnPRLoVZgJMi3fUZ-5" value="NodeB" style="rounded=0;whiteSpace=wrap;html=1;" vertex="1" parent="1">
          <mxGeometry x="200" y="40" width="80" height="40" as="geometry" />
        </mxCell>
        <mxCell id="eJzGDnPRLoVZgJMi3fUZ-7" value="NodeC" style="rounded=0;whiteSpace=wrap;html=1;" vertex="1" parent="1">
          <mxGeometry x="360" y="40" width="80" height="40" as="geometry" />
        </mxCell>
        <mxCell id="eJzGDnPRLoVZgJMi3fUZ-12" value="" style="edgeStyle=none;orthogonalLoop=1;jettySize=auto;html=1;rounded=0;" edge="1" parent="1" source="eJzGDnPRLoVZgJMi3fUZ-2" target="eJzGDnPRLoVZgJMi3fUZ-5">
          <mxGeometry width="80" relative="1" as="geometry">
            <mxPoint x="100" y="220" as="sourcePoint" />
            <mxPoint x="180" y="220" as="targetPoint" />
            <Array as="points" />
          </mxGeometry>
        </mxCell>
        <mxCell id="eJzGDnPRLoVZgJMi3fUZ-14" value="" style="edgeStyle=none;orthogonalLoop=1;jettySize=auto;html=1;rounded=0;" edge="1" parent="1" source="eJzGDnPRLoVZgJMi3fUZ-5" target="eJzGDnPRLoVZgJMi3fUZ-7">
          <mxGeometry width="80" relative="1" as="geometry">
            <mxPoint x="280" y="270" as="sourcePoint" />
            <mxPoint x="360" y="270" as="targetPoint" />
            <Array as="points" />
          </mxGeometry>
        </mxCell>
        <mxCell id="IzcRVU4cDQZYX5PKyC8h-1" value="NodeD" style="rounded=0;whiteSpace=wrap;html=1;" vertex="1" parent="1">
          <mxGeometry x="520" y="40" width="80" height="40" as="geometry" />
        </mxCell>
        <mxCell id="IzcRVU4cDQZYX5PKyC8h-2" value="" style="edgeStyle=none;orthogonalLoop=1;jettySize=auto;html=1;rounded=0;" edge="1" parent="1" target="IzcRVU4cDQZYX5PKyC8h-1" source="eJzGDnPRLoVZgJMi3fUZ-7">
          <mxGeometry width="80" relative="1" as="geometry">
            <mxPoint x="440" y="60" as="sourcePoint" />
            <mxPoint x="520" y="270" as="targetPoint" />
            <Array as="points" />
          </mxGeometry>
        </mxCell>
      </root>
    </mxGraphModel>
  </diagram>
  <diagram id="ZUXUSRcXZRZPYmjnxoGO" name="chain-deriving-a">
    <mxGraphModel dx="1636" dy="895" grid="1" gridSize="10" guides="1" tooltips="1" connect="1" arrows="1" fold="1" page="1" pageScale="1" pageWidth="850" pageHeight="1100" math="0" shadow="0">
      <root>
        <mxCell id="0" />
        <mxCell id="1" parent="0" />
        <mxCell id="705dVUWECFWQKNBHcuN5-7" value="NodeE" style="rounded=0;whiteSpace=wrap;html=1;strokeColor=#009900;fontColor=#009900;" vertex="1" parent="1">
          <mxGeometry x="680" y="40" width="80" height="40" as="geometry" />
        </mxCell>
        <mxCell id="705dVUWECFWQKNBHcuN5-10" value="" style="edgeStyle=none;orthogonalLoop=1;jettySize=auto;html=1;rounded=0;strokeColor=#009900;" edge="1" parent="1" source="BwNIFkV2Q_UsrCefZW8m-6" target="705dVUWECFWQKNBHcuN5-7">
          <mxGeometry width="80" relative="1" as="geometry">
            <mxPoint x="140" y="-60" as="sourcePoint" />
            <mxPoint x="220" y="-20" as="targetPoint" />
            <Array as="points" />
          </mxGeometry>
        </mxCell>
        <mxCell id="BwNIFkV2Q_UsrCefZW8m-1" value="NodeA" style="rounded=0;whiteSpace=wrap;html=1;" vertex="1" parent="1">
          <mxGeometry x="40" y="40" width="80" height="40" as="geometry" />
        </mxCell>
        <mxCell id="BwNIFkV2Q_UsrCefZW8m-2" value="NodeB" style="rounded=0;whiteSpace=wrap;html=1;" vertex="1" parent="1">
          <mxGeometry x="200" y="40" width="80" height="40" as="geometry" />
        </mxCell>
        <mxCell id="BwNIFkV2Q_UsrCefZW8m-3" value="NodeC" style="rounded=0;whiteSpace=wrap;html=1;" vertex="1" parent="1">
          <mxGeometry x="360" y="40" width="80" height="40" as="geometry" />
        </mxCell>
        <mxCell id="BwNIFkV2Q_UsrCefZW8m-4" value="" style="edgeStyle=none;orthogonalLoop=1;jettySize=auto;html=1;rounded=0;" edge="1" parent="1" source="BwNIFkV2Q_UsrCefZW8m-1" target="BwNIFkV2Q_UsrCefZW8m-2">
          <mxGeometry width="80" relative="1" as="geometry">
            <mxPoint x="100" y="220" as="sourcePoint" />
            <mxPoint x="180" y="220" as="targetPoint" />
            <Array as="points" />
          </mxGeometry>
        </mxCell>
        <mxCell id="BwNIFkV2Q_UsrCefZW8m-5" value="" style="edgeStyle=none;orthogonalLoop=1;jettySize=auto;html=1;rounded=0;" edge="1" parent="1" source="BwNIFkV2Q_UsrCefZW8m-2" target="BwNIFkV2Q_UsrCefZW8m-3">
          <mxGeometry width="80" relative="1" as="geometry">
            <mxPoint x="280" y="270" as="sourcePoint" />
            <mxPoint x="360" y="270" as="targetPoint" />
            <Array as="points" />
          </mxGeometry>
        </mxCell>
        <mxCell id="BwNIFkV2Q_UsrCefZW8m-6" value="NodeD" style="rounded=0;whiteSpace=wrap;html=1;" vertex="1" parent="1">
          <mxGeometry x="520" y="40" width="80" height="40" as="geometry" />
        </mxCell>
        <mxCell id="BwNIFkV2Q_UsrCefZW8m-7" value="" style="edgeStyle=none;orthogonalLoop=1;jettySize=auto;html=1;rounded=0;" edge="1" parent="1" source="BwNIFkV2Q_UsrCefZW8m-3" target="BwNIFkV2Q_UsrCefZW8m-6">
          <mxGeometry width="80" relative="1" as="geometry">
            <mxPoint x="440" y="60" as="sourcePoint" />
            <mxPoint x="520" y="270" as="targetPoint" />
            <Array as="points" />
          </mxGeometry>
        </mxCell>
      </root>
    </mxGraphModel>
  </diagram>
  <diagram id="izfvKfS8C97AVYYoJLA3" name="chain-deriving-b">
    <mxGraphModel dx="3354" dy="1834" grid="1" gridSize="10" guides="1" tooltips="1" connect="1" arrows="1" fold="1" page="1" pageScale="1" pageWidth="850" pageHeight="1100" math="0" shadow="0">
      <root>
        <mxCell id="0" />
        <mxCell id="1" parent="0" />
        <mxCell id="PhulqkdhTzjsofYENiT_-1" value="NodeE" style="rounded=0;whiteSpace=wrap;html=1;strokeColor=#009900;fontColor=#009900;" vertex="1" parent="1">
          <mxGeometry x="200" y="120" width="80" height="40" as="geometry" />
        </mxCell>
        <mxCell id="PhulqkdhTzjsofYENiT_-2" value="" style="edgeStyle=none;orthogonalLoop=1;jettySize=auto;html=1;rounded=0;strokeColor=#009900;" edge="1" parent="1" source="PhulqkdhTzjsofYENiT_-4" target="PhulqkdhTzjsofYENiT_-1">
          <mxGeometry width="80" relative="1" as="geometry">
            <mxPoint x="100" y="-180" as="sourcePoint" />
            <mxPoint x="180" y="-180" as="targetPoint" />
            <Array as="points" />
          </mxGeometry>
        </mxCell>
        <mxCell id="PhulqkdhTzjsofYENiT_-3" value="" style="edgeStyle=none;orthogonalLoop=1;jettySize=auto;html=1;rounded=0;strokeColor=#009900;" edge="1" parent="1" source="PhulqkdhTzjsofYENiT_-1" target="PhulqkdhTzjsofYENiT_-6">
          <mxGeometry width="80" relative="1" as="geometry">
            <mxPoint x="130" y="-150" as="sourcePoint" />
            <mxPoint x="210" y="-110" as="targetPoint" />
            <Array as="points" />
          </mxGeometry>
        </mxCell>
        <mxCell id="PhulqkdhTzjsofYENiT_-4" value="NodeA" style="rounded=0;whiteSpace=wrap;html=1;" vertex="1" parent="1">
          <mxGeometry x="40" y="40" width="80" height="40" as="geometry" />
        </mxCell>
        <mxCell id="PhulqkdhTzjsofYENiT_-5" value="NodeB" style="rounded=0;whiteSpace=wrap;html=1;" vertex="1" parent="1">
          <mxGeometry x="200" y="40" width="80" height="40" as="geometry" />
        </mxCell>
        <mxCell id="PhulqkdhTzjsofYENiT_-6" value="NodeC" style="rounded=0;whiteSpace=wrap;html=1;" vertex="1" parent="1">
          <mxGeometry x="360" y="40" width="80" height="40" as="geometry" />
        </mxCell>
        <mxCell id="PhulqkdhTzjsofYENiT_-7" value="" style="edgeStyle=none;orthogonalLoop=1;jettySize=auto;html=1;rounded=0;" edge="1" parent="1" source="PhulqkdhTzjsofYENiT_-4" target="PhulqkdhTzjsofYENiT_-5">
          <mxGeometry width="80" relative="1" as="geometry">
            <mxPoint x="100" y="220" as="sourcePoint" />
            <mxPoint x="180" y="220" as="targetPoint" />
            <Array as="points" />
          </mxGeometry>
        </mxCell>
        <mxCell id="PhulqkdhTzjsofYENiT_-8" value="" style="edgeStyle=none;orthogonalLoop=1;jettySize=auto;html=1;rounded=0;" edge="1" parent="1" source="PhulqkdhTzjsofYENiT_-5" target="PhulqkdhTzjsofYENiT_-6">
          <mxGeometry width="80" relative="1" as="geometry">
            <mxPoint x="280" y="270" as="sourcePoint" />
            <mxPoint x="360" y="270" as="targetPoint" />
            <Array as="points" />
          </mxGeometry>
        </mxCell>
        <mxCell id="PhulqkdhTzjsofYENiT_-9" value="NodeD" style="rounded=0;whiteSpace=wrap;html=1;" vertex="1" parent="1">
          <mxGeometry x="520" y="40" width="80" height="40" as="geometry" />
        </mxCell>
        <mxCell id="PhulqkdhTzjsofYENiT_-10" value="" style="edgeStyle=none;orthogonalLoop=1;jettySize=auto;html=1;rounded=0;" edge="1" parent="1" source="PhulqkdhTzjsofYENiT_-6" target="PhulqkdhTzjsofYENiT_-9">
          <mxGeometry width="80" relative="1" as="geometry">
            <mxPoint x="440" y="60" as="sourcePoint" />
            <mxPoint x="520" y="270" as="targetPoint" />
            <Array as="points" />
          </mxGeometry>
        </mxCell>
      </root>
    </mxGraphModel>
  </diagram>
  <diagram id="-PYwccAAohgdFbLFHlxV" name="chain-dag">
    <mxGraphModel dx="1342" dy="734" grid="1" gridSize="10" guides="1" tooltips="1" connect="1" arrows="1" fold="1" page="1" pageScale="1" pageWidth="850" pageHeight="1100" math="0" shadow="0">
      <root>
        <mxCell id="0" />
        <mxCell id="1" parent="0" />
        <mxCell id="BFSoG5yN4PG2wsqg-fza-1" value="NodeA" style="rounded=0;whiteSpace=wrap;html=1;" vertex="1" parent="1">
          <mxGeometry x="120" y="40" width="80" height="40" as="geometry" />
        </mxCell>
        <mxCell id="BFSoG5yN4PG2wsqg-fza-2" value="NodeB" style="rounded=0;whiteSpace=wrap;html=1;" vertex="1" parent="1">
          <mxGeometry x="40" y="160" width="80" height="40" as="geometry" />
        </mxCell>
        <mxCell id="BFSoG5yN4PG2wsqg-fza-3" value="NodeC" style="rounded=0;whiteSpace=wrap;html=1;" vertex="1" parent="1">
          <mxGeometry x="280" y="40" width="80" height="40" as="geometry" />
        </mxCell>
        <mxCell id="BFSoG5yN4PG2wsqg-fza-4" value="NodeD" style="rounded=0;whiteSpace=wrap;html=1;" vertex="1" parent="1">
          <mxGeometry x="280" y="120" width="80" height="40" as="geometry" />
        </mxCell>
        <mxCell id="BFSoG5yN4PG2wsqg-fza-5" value="NodeE" style="rounded=0;whiteSpace=wrap;html=1;" vertex="1" parent="1">
          <mxGeometry x="200" y="240" width="80" height="40" as="geometry" />
        </mxCell>
        <mxCell id="BFSoG5yN4PG2wsqg-fza-6" value="NodeF" style="rounded=0;whiteSpace=wrap;html=1;" vertex="1" parent="1">
          <mxGeometry x="360" y="200" width="80" height="40" as="geometry" />
        </mxCell>
        <mxCell id="BFSoG5yN4PG2wsqg-fza-7" value="NodeG" style="rounded=0;whiteSpace=wrap;html=1;" vertex="1" parent="1">
          <mxGeometry x="360" y="280" width="80" height="40" as="geometry" />
        </mxCell>
        <mxCell id="BFSoG5yN4PG2wsqg-fza-8" value="NodeH" style="rounded=0;whiteSpace=wrap;html=1;" vertex="1" parent="1">
          <mxGeometry x="520" y="160" width="80" height="40" as="geometry" />
        </mxCell>
        <mxCell id="BFSoG5yN4PG2wsqg-fza-9" value="" style="edgeStyle=none;orthogonalLoop=1;jettySize=auto;html=1;rounded=0;" edge="1" parent="1" source="BFSoG5yN4PG2wsqg-fza-1" target="BFSoG5yN4PG2wsqg-fza-3">
          <mxGeometry width="80" relative="1" as="geometry">
            <mxPoint x="100" y="140" as="sourcePoint" />
            <mxPoint x="180" y="140" as="targetPoint" />
            <Array as="points" />
          </mxGeometry>
        </mxCell>
        <mxCell id="BFSoG5yN4PG2wsqg-fza-10" value="" style="edgeStyle=none;orthogonalLoop=1;jettySize=auto;html=1;rounded=0;" edge="1" parent="1" source="BFSoG5yN4PG2wsqg-fza-2" target="BFSoG5yN4PG2wsqg-fza-3">
          <mxGeometry width="80" relative="1" as="geometry">
            <mxPoint x="100" y="220" as="sourcePoint" />
            <mxPoint x="180" y="220" as="targetPoint" />
            <Array as="points" />
          </mxGeometry>
        </mxCell>
        <mxCell id="BFSoG5yN4PG2wsqg-fza-11" value="" style="edgeStyle=none;orthogonalLoop=1;jettySize=auto;html=1;rounded=0;" edge="1" parent="1" source="BFSoG5yN4PG2wsqg-fza-2" target="BFSoG5yN4PG2wsqg-fza-4">
          <mxGeometry width="80" relative="1" as="geometry">
            <mxPoint x="110" y="220" as="sourcePoint" />
            <mxPoint x="190" y="220" as="targetPoint" />
            <Array as="points" />
          </mxGeometry>
        </mxCell>
        <mxCell id="BFSoG5yN4PG2wsqg-fza-12" value="" style="edgeStyle=none;orthogonalLoop=1;jettySize=auto;html=1;rounded=0;" edge="1" parent="1" source="BFSoG5yN4PG2wsqg-fza-2" target="BFSoG5yN4PG2wsqg-fza-5">
          <mxGeometry width="80" relative="1" as="geometry">
            <mxPoint x="100" y="220" as="sourcePoint" />
            <mxPoint x="180" y="220" as="targetPoint" />
            <Array as="points" />
          </mxGeometry>
        </mxCell>
        <mxCell id="BFSoG5yN4PG2wsqg-fza-13" value="" style="edgeStyle=none;orthogonalLoop=1;jettySize=auto;html=1;rounded=0;" edge="1" parent="1" source="BFSoG5yN4PG2wsqg-fza-5" target="BFSoG5yN4PG2wsqg-fza-6">
          <mxGeometry width="80" relative="1" as="geometry">
            <mxPoint x="300" y="240" as="sourcePoint" />
            <mxPoint x="380" y="240" as="targetPoint" />
            <Array as="points" />
          </mxGeometry>
        </mxCell>
        <mxCell id="BFSoG5yN4PG2wsqg-fza-14" value="" style="edgeStyle=none;orthogonalLoop=1;jettySize=auto;html=1;rounded=0;" edge="1" parent="1" source="BFSoG5yN4PG2wsqg-fza-5" target="BFSoG5yN4PG2wsqg-fza-7">
          <mxGeometry width="80" relative="1" as="geometry">
            <mxPoint x="280" y="270" as="sourcePoint" />
            <mxPoint x="360" y="270" as="targetPoint" />
            <Array as="points" />
          </mxGeometry>
        </mxCell>
        <mxCell id="BFSoG5yN4PG2wsqg-fza-15" value="" style="edgeStyle=none;orthogonalLoop=1;jettySize=auto;html=1;rounded=0;" edge="1" parent="1" source="BFSoG5yN4PG2wsqg-fza-3" target="BFSoG5yN4PG2wsqg-fza-8">
          <mxGeometry width="80" relative="1" as="geometry">
            <mxPoint x="420" y="110" as="sourcePoint" />
            <mxPoint x="500" y="110" as="targetPoint" />
            <Array as="points" />
          </mxGeometry>
        </mxCell>
        <mxCell id="BFSoG5yN4PG2wsqg-fza-16" value="" style="edgeStyle=none;orthogonalLoop=1;jettySize=auto;html=1;rounded=0;" edge="1" parent="1" source="BFSoG5yN4PG2wsqg-fza-4" target="BFSoG5yN4PG2wsqg-fza-8">
          <mxGeometry width="80" relative="1" as="geometry">
            <mxPoint x="400" y="150" as="sourcePoint" />
            <mxPoint x="480" y="150" as="targetPoint" />
            <Array as="points" />
          </mxGeometry>
        </mxCell>
        <mxCell id="BFSoG5yN4PG2wsqg-fza-17" value="" style="edgeStyle=none;orthogonalLoop=1;jettySize=auto;html=1;rounded=0;" edge="1" parent="1" source="BFSoG5yN4PG2wsqg-fza-6" target="BFSoG5yN4PG2wsqg-fza-8">
          <mxGeometry width="80" relative="1" as="geometry">
            <mxPoint x="440" y="220" as="sourcePoint" />
            <mxPoint x="520" y="220" as="targetPoint" />
            <Array as="points" />
          </mxGeometry>
        </mxCell>
        <mxCell id="BFSoG5yN4PG2wsqg-fza-18" value="" style="edgeStyle=none;orthogonalLoop=1;jettySize=auto;html=1;rounded=0;" edge="1" parent="1" source="BFSoG5yN4PG2wsqg-fza-7" target="BFSoG5yN4PG2wsqg-fza-8">
          <mxGeometry width="80" relative="1" as="geometry">
            <mxPoint x="440" y="290" as="sourcePoint" />
            <mxPoint x="520" y="290" as="targetPoint" />
            <Array as="points" />
          </mxGeometry>
        </mxCell>
      </root>
    </mxGraphModel>
  </diagram>
  <diagram id="PzwMxk3YzB2hLIZ5Ue-5" name="chain-sync">
    <mxGraphModel dx="1597" dy="873" grid="1" gridSize="10" guides="1" tooltips="1" connect="1" arrows="1" fold="1" page="1" pageScale="1" pageWidth="850" pageHeight="1100" math="0" shadow="0">
      <root>
        <mxCell id="0" />
        <mxCell id="1" parent="0" />
        <mxCell id="QfihCdWw59AMVNXWMj_l-1" value="NodeA" style="rounded=0;whiteSpace=wrap;html=1;" vertex="1" parent="1">
          <mxGeometry x="120" y="40" width="80" height="40" as="geometry" />
        </mxCell>
        <mxCell id="QfihCdWw59AMVNXWMj_l-2" value="NodeB" style="rounded=0;whiteSpace=wrap;html=1;" vertex="1" parent="1">
          <mxGeometry x="40" y="160" width="80" height="40" as="geometry" />
        </mxCell>
        <mxCell id="QfihCdWw59AMVNXWMj_l-3" value="NodeC" style="rounded=0;whiteSpace=wrap;html=1;" vertex="1" parent="1">
          <mxGeometry x="280" y="40" width="80" height="40" as="geometry" />
        </mxCell>
        <mxCell id="QfihCdWw59AMVNXWMj_l-4" value="NodeD" style="rounded=0;whiteSpace=wrap;html=1;" vertex="1" parent="1">
          <mxGeometry x="280" y="120" width="80" height="40" as="geometry" />
        </mxCell>
        <mxCell id="QfihCdWw59AMVNXWMj_l-5" value="NodeE" style="rounded=0;whiteSpace=wrap;html=1;" vertex="1" parent="1">
          <mxGeometry x="200" y="240" width="80" height="40" as="geometry" />
        </mxCell>
        <mxCell id="QfihCdWw59AMVNXWMj_l-6" value="NodeF" style="rounded=0;whiteSpace=wrap;html=1;" vertex="1" parent="1">
          <mxGeometry x="360" y="200" width="80" height="40" as="geometry" />
        </mxCell>
        <mxCell id="QfihCdWw59AMVNXWMj_l-7" value="NodeG" style="rounded=0;whiteSpace=wrap;html=1;" vertex="1" parent="1">
          <mxGeometry x="360" y="280" width="80" height="40" as="geometry" />
        </mxCell>
        <mxCell id="QfihCdWw59AMVNXWMj_l-8" value="NodeH" style="rounded=0;whiteSpace=wrap;html=1;" vertex="1" parent="1">
          <mxGeometry x="520" y="160" width="80" height="40" as="geometry" />
        </mxCell>
        <mxCell id="QfihCdWw59AMVNXWMj_l-9" value="" style="edgeStyle=none;orthogonalLoop=1;jettySize=auto;html=1;rounded=0;" edge="1" parent="1" source="QfihCdWw59AMVNXWMj_l-1" target="QfihCdWw59AMVNXWMj_l-3">
          <mxGeometry width="80" relative="1" as="geometry">
            <mxPoint x="100" y="140" as="sourcePoint" />
            <mxPoint x="180" y="140" as="targetPoint" />
            <Array as="points" />
          </mxGeometry>
        </mxCell>
        <mxCell id="QfihCdWw59AMVNXWMj_l-10" value="" style="edgeStyle=none;orthogonalLoop=1;jettySize=auto;html=1;rounded=0;strokeColor=#FF0000;" edge="1" parent="1" source="QfihCdWw59AMVNXWMj_l-2" target="QfihCdWw59AMVNXWMj_l-3">
          <mxGeometry width="80" relative="1" as="geometry">
            <mxPoint x="100" y="220" as="sourcePoint" />
            <mxPoint x="180" y="220" as="targetPoint" />
            <Array as="points" />
          </mxGeometry>
        </mxCell>
        <mxCell id="QfihCdWw59AMVNXWMj_l-11" value="" style="edgeStyle=none;orthogonalLoop=1;jettySize=auto;html=1;rounded=0;" edge="1" parent="1" source="QfihCdWw59AMVNXWMj_l-2" target="QfihCdWw59AMVNXWMj_l-4">
          <mxGeometry width="80" relative="1" as="geometry">
            <mxPoint x="110" y="220" as="sourcePoint" />
            <mxPoint x="190" y="220" as="targetPoint" />
            <Array as="points" />
          </mxGeometry>
        </mxCell>
        <mxCell id="QfihCdWw59AMVNXWMj_l-12" value="" style="edgeStyle=none;orthogonalLoop=1;jettySize=auto;html=1;rounded=0;" edge="1" parent="1" source="QfihCdWw59AMVNXWMj_l-2" target="QfihCdWw59AMVNXWMj_l-5">
          <mxGeometry width="80" relative="1" as="geometry">
            <mxPoint x="100" y="220" as="sourcePoint" />
            <mxPoint x="180" y="220" as="targetPoint" />
            <Array as="points" />
          </mxGeometry>
        </mxCell>
        <mxCell id="QfihCdWw59AMVNXWMj_l-13" value="" style="edgeStyle=none;orthogonalLoop=1;jettySize=auto;html=1;rounded=0;strokeColor=#FF0000;" edge="1" parent="1" source="QfihCdWw59AMVNXWMj_l-5" target="QfihCdWw59AMVNXWMj_l-6">
          <mxGeometry width="80" relative="1" as="geometry">
            <mxPoint x="300" y="240" as="sourcePoint" />
            <mxPoint x="380" y="240" as="targetPoint" />
            <Array as="points" />
          </mxGeometry>
        </mxCell>
        <mxCell id="QfihCdWw59AMVNXWMj_l-14" value="" style="edgeStyle=none;orthogonalLoop=1;jettySize=auto;html=1;rounded=0;" edge="1" parent="1" source="QfihCdWw59AMVNXWMj_l-5" target="QfihCdWw59AMVNXWMj_l-7">
          <mxGeometry width="80" relative="1" as="geometry">
            <mxPoint x="280" y="270" as="sourcePoint" />
            <mxPoint x="360" y="270" as="targetPoint" />
            <Array as="points" />
          </mxGeometry>
        </mxCell>
        <mxCell id="QfihCdWw59AMVNXWMj_l-15" value="" style="edgeStyle=none;orthogonalLoop=1;jettySize=auto;html=1;rounded=0;" edge="1" parent="1" source="QfihCdWw59AMVNXWMj_l-3" target="QfihCdWw59AMVNXWMj_l-8">
          <mxGeometry width="80" relative="1" as="geometry">
            <mxPoint x="420" y="110" as="sourcePoint" />
            <mxPoint x="500" y="110" as="targetPoint" />
            <Array as="points" />
          </mxGeometry>
        </mxCell>
        <mxCell id="QfihCdWw59AMVNXWMj_l-16" value="" style="edgeStyle=none;orthogonalLoop=1;jettySize=auto;html=1;rounded=0;" edge="1" parent="1" source="QfihCdWw59AMVNXWMj_l-4" target="QfihCdWw59AMVNXWMj_l-8">
          <mxGeometry width="80" relative="1" as="geometry">
            <mxPoint x="400" y="150" as="sourcePoint" />
            <mxPoint x="480" y="150" as="targetPoint" />
            <Array as="points" />
          </mxGeometry>
        </mxCell>
        <mxCell id="QfihCdWw59AMVNXWMj_l-17" value="" style="edgeStyle=none;orthogonalLoop=1;jettySize=auto;html=1;rounded=0;" edge="1" parent="1" source="QfihCdWw59AMVNXWMj_l-6" target="QfihCdWw59AMVNXWMj_l-8">
          <mxGeometry width="80" relative="1" as="geometry">
            <mxPoint x="440" y="220" as="sourcePoint" />
            <mxPoint x="520" y="220" as="targetPoint" />
            <Array as="points" />
          </mxGeometry>
        </mxCell>
        <mxCell id="QfihCdWw59AMVNXWMj_l-18" value="" style="edgeStyle=none;orthogonalLoop=1;jettySize=auto;html=1;rounded=0;strokeColor=#FF0000;" edge="1" parent="1" source="QfihCdWw59AMVNXWMj_l-7" target="QfihCdWw59AMVNXWMj_l-8">
          <mxGeometry width="80" relative="1" as="geometry">
            <mxPoint x="440" y="290" as="sourcePoint" />
            <mxPoint x="520" y="290" as="targetPoint" />
            <Array as="points" />
          </mxGeometry>
        </mxCell>
        <mxCell id="vj5i0rrlZP6fj4hGMiU0-1" value="" style="edgeStyle=none;orthogonalLoop=1;jettySize=auto;html=1;rounded=0;dashed=1;strokeColor=#FF0000;" edge="1" parent="1" source="QfihCdWw59AMVNXWMj_l-1" target="QfihCdWw59AMVNXWMj_l-2">
          <mxGeometry width="80" relative="1" as="geometry">
            <mxPoint x="170" y="100" as="sourcePoint" />
            <mxPoint x="250" y="100" as="targetPoint" />
            <Array as="points" />
          </mxGeometry>
        </mxCell>
        <mxCell id="vj5i0rrlZP6fj4hGMiU0-2" value="" style="edgeStyle=none;orthogonalLoop=1;jettySize=auto;html=1;rounded=0;dashed=1;strokeColor=#FF0000;" edge="1" parent="1" source="QfihCdWw59AMVNXWMj_l-3" target="QfihCdWw59AMVNXWMj_l-4">
          <mxGeometry width="80" relative="1" as="geometry">
            <mxPoint x="157" y="90" as="sourcePoint" />
            <mxPoint x="103" y="170" as="targetPoint" />
            <Array as="points" />
          </mxGeometry>
        </mxCell>
        <mxCell id="vj5i0rrlZP6fj4hGMiU0-3" value="" style="edgeStyle=none;orthogonalLoop=1;jettySize=auto;html=1;rounded=0;dashed=1;strokeColor=#FF0000;" edge="1" parent="1" source="QfihCdWw59AMVNXWMj_l-4" target="QfihCdWw59AMVNXWMj_l-5">
          <mxGeometry width="80" relative="1" as="geometry">
            <mxPoint x="330" y="90" as="sourcePoint" />
            <mxPoint x="330" y="130" as="targetPoint" />
            <Array as="points" />
          </mxGeometry>
        </mxCell>
        <mxCell id="vj5i0rrlZP6fj4hGMiU0-4" value="" style="edgeStyle=none;orthogonalLoop=1;jettySize=auto;html=1;rounded=0;dashed=1;strokeColor=#FF0000;" edge="1" parent="1" source="QfihCdWw59AMVNXWMj_l-6" target="QfihCdWw59AMVNXWMj_l-7">
          <mxGeometry width="80" relative="1" as="geometry">
            <mxPoint x="317" y="170" as="sourcePoint" />
            <mxPoint x="263" y="250" as="targetPoint" />
            <Array as="points" />
          </mxGeometry>
        </mxCell>
      </root>
    </mxGraphModel>
  </diagram>
  <diagram id="tHYcuUipbZXJ3DMLFof_" name="chain-async">
    <mxGraphModel dx="1342" dy="734" grid="1" gridSize="10" guides="1" tooltips="1" connect="1" arrows="1" fold="1" page="1" pageScale="1" pageWidth="850" pageHeight="1100" math="0" shadow="0">
      <root>
        <mxCell id="0" />
        <mxCell id="1" parent="0" />
        <mxCell id="xYyH674Hl-_va3RlvYcr-9" value="" style="edgeStyle=none;orthogonalLoop=1;jettySize=auto;html=1;rounded=0;" edge="1" parent="1" source="xYyH674Hl-_va3RlvYcr-1" target="xYyH674Hl-_va3RlvYcr-3">
          <mxGeometry width="80" relative="1" as="geometry">
            <mxPoint x="100" y="140" as="sourcePoint" />
            <mxPoint x="180" y="140" as="targetPoint" />
            <Array as="points" />
          </mxGeometry>
        </mxCell>
        <mxCell id="xYyH674Hl-_va3RlvYcr-10" value="" style="edgeStyle=none;orthogonalLoop=1;jettySize=auto;html=1;rounded=0;" edge="1" parent="1" source="xYyH674Hl-_va3RlvYcr-2" target="xYyH674Hl-_va3RlvYcr-3">
          <mxGeometry width="80" relative="1" as="geometry">
            <mxPoint x="100" y="220" as="sourcePoint" />
            <mxPoint x="180" y="220" as="targetPoint" />
            <Array as="points" />
          </mxGeometry>
        </mxCell>
        <mxCell id="xYyH674Hl-_va3RlvYcr-11" value="" style="edgeStyle=none;orthogonalLoop=1;jettySize=auto;html=1;rounded=0;" edge="1" parent="1" source="xYyH674Hl-_va3RlvYcr-2" target="xYyH674Hl-_va3RlvYcr-4">
          <mxGeometry width="80" relative="1" as="geometry">
            <mxPoint x="110" y="220" as="sourcePoint" />
            <mxPoint x="190" y="220" as="targetPoint" />
            <Array as="points" />
          </mxGeometry>
        </mxCell>
        <mxCell id="xYyH674Hl-_va3RlvYcr-12" value="" style="edgeStyle=none;orthogonalLoop=1;jettySize=auto;html=1;rounded=0;" edge="1" parent="1" source="xYyH674Hl-_va3RlvYcr-2" target="xYyH674Hl-_va3RlvYcr-5">
          <mxGeometry width="80" relative="1" as="geometry">
            <mxPoint x="100" y="220" as="sourcePoint" />
            <mxPoint x="180" y="220" as="targetPoint" />
            <Array as="points" />
          </mxGeometry>
        </mxCell>
        <mxCell id="xYyH674Hl-_va3RlvYcr-14" value="" style="edgeStyle=none;orthogonalLoop=1;jettySize=auto;html=1;rounded=0;" edge="1" parent="1" source="xYyH674Hl-_va3RlvYcr-5" target="xYyH674Hl-_va3RlvYcr-7">
          <mxGeometry width="80" relative="1" as="geometry">
            <mxPoint x="280" y="270" as="sourcePoint" />
            <mxPoint x="360" y="270" as="targetPoint" />
            <Array as="points" />
          </mxGeometry>
        </mxCell>
        <mxCell id="xYyH674Hl-_va3RlvYcr-15" value="" style="edgeStyle=none;orthogonalLoop=1;jettySize=auto;html=1;rounded=0;" edge="1" parent="1" source="xYyH674Hl-_va3RlvYcr-3" target="xYyH674Hl-_va3RlvYcr-8">
          <mxGeometry width="80" relative="1" as="geometry">
            <mxPoint x="420" y="110" as="sourcePoint" />
            <mxPoint x="500" y="110" as="targetPoint" />
            <Array as="points" />
          </mxGeometry>
        </mxCell>
        <mxCell id="xYyH674Hl-_va3RlvYcr-16" value="" style="edgeStyle=none;orthogonalLoop=1;jettySize=auto;html=1;rounded=0;" edge="1" parent="1" source="xYyH674Hl-_va3RlvYcr-4" target="xYyH674Hl-_va3RlvYcr-8">
          <mxGeometry width="80" relative="1" as="geometry">
            <mxPoint x="400" y="150" as="sourcePoint" />
            <mxPoint x="480" y="150" as="targetPoint" />
            <Array as="points" />
          </mxGeometry>
        </mxCell>
        <mxCell id="xYyH674Hl-_va3RlvYcr-17" value="" style="edgeStyle=none;orthogonalLoop=1;jettySize=auto;html=1;rounded=0;" edge="1" parent="1" source="xYyH674Hl-_va3RlvYcr-6" target="xYyH674Hl-_va3RlvYcr-8">
          <mxGeometry width="80" relative="1" as="geometry">
            <mxPoint x="440" y="220" as="sourcePoint" />
            <mxPoint x="520" y="220" as="targetPoint" />
            <Array as="points" />
          </mxGeometry>
        </mxCell>
        <mxCell id="xYyH674Hl-_va3RlvYcr-18" value="" style="edgeStyle=none;orthogonalLoop=1;jettySize=auto;html=1;rounded=0;" edge="1" parent="1" source="xYyH674Hl-_va3RlvYcr-7" target="xYyH674Hl-_va3RlvYcr-8">
          <mxGeometry width="80" relative="1" as="geometry">
            <mxPoint x="440" y="290" as="sourcePoint" />
            <mxPoint x="520" y="290" as="targetPoint" />
            <Array as="points" />
          </mxGeometry>
        </mxCell>
        <mxCell id="xYyH674Hl-_va3RlvYcr-21" value="" style="endArrow=none;dashed=1;html=1;rounded=0;endFill=0;" edge="1" parent="1">
          <mxGeometry width="50" height="50" relative="1" as="geometry">
            <mxPoint x="30" y="150" as="sourcePoint" />
            <mxPoint x="110" y="30" as="targetPoint" />
          </mxGeometry>
        </mxCell>
        <mxCell id="xYyH674Hl-_va3RlvYcr-23" value="" style="endArrow=none;dashed=1;html=1;rounded=0;endFill=0;" edge="1" parent="1">
          <mxGeometry width="50" height="50" relative="1" as="geometry">
            <mxPoint x="30" y="210" as="sourcePoint" />
            <mxPoint x="30" y="150" as="targetPoint" />
          </mxGeometry>
        </mxCell>
        <mxCell id="xYyH674Hl-_va3RlvYcr-25" value="" style="endArrow=none;dashed=1;html=1;rounded=0;endFill=0;" edge="1" parent="1">
          <mxGeometry width="50" height="50" relative="1" as="geometry">
            <mxPoint x="130" y="210" as="sourcePoint" />
            <mxPoint x="30" y="210" as="targetPoint" />
          </mxGeometry>
        </mxCell>
        <mxCell id="xYyH674Hl-_va3RlvYcr-26" value="" style="endArrow=none;dashed=1;html=1;rounded=0;endFill=0;" edge="1" parent="1">
          <mxGeometry width="50" height="50" relative="1" as="geometry">
            <mxPoint x="210" y="90" as="sourcePoint" />
            <mxPoint x="130" y="210" as="targetPoint" />
          </mxGeometry>
        </mxCell>
        <mxCell id="xYyH674Hl-_va3RlvYcr-27" value="" style="endArrow=none;dashed=1;html=1;rounded=0;endFill=0;" edge="1" parent="1">
          <mxGeometry width="50" height="50" relative="1" as="geometry">
            <mxPoint x="210" y="30" as="sourcePoint" />
            <mxPoint x="210" y="90" as="targetPoint" />
          </mxGeometry>
        </mxCell>
        <mxCell id="xYyH674Hl-_va3RlvYcr-28" value="" style="endArrow=none;dashed=1;html=1;rounded=0;endFill=0;" edge="1" parent="1">
          <mxGeometry width="50" height="50" relative="1" as="geometry">
            <mxPoint x="110" y="30" as="sourcePoint" />
            <mxPoint x="210" y="30" as="targetPoint" />
          </mxGeometry>
        </mxCell>
        <mxCell id="xYyH674Hl-_va3RlvYcr-29" value="" style="endArrow=none;dashed=1;html=1;rounded=0;endFill=0;" edge="1" parent="1">
          <mxGeometry width="50" height="50" relative="1" as="geometry">
            <mxPoint x="260" y="110" as="sourcePoint" />
            <mxPoint x="260" y="20" as="targetPoint" />
          </mxGeometry>
        </mxCell>
        <mxCell id="xYyH674Hl-_va3RlvYcr-31" value="" style="endArrow=none;dashed=1;html=1;rounded=0;endFill=0;" edge="1" parent="1">
          <mxGeometry width="50" height="50" relative="1" as="geometry">
            <mxPoint x="180" y="290" as="sourcePoint" />
            <mxPoint x="180" y="230" as="targetPoint" />
          </mxGeometry>
        </mxCell>
        <mxCell id="xYyH674Hl-_va3RlvYcr-32" value="" style="endArrow=none;dashed=1;html=1;rounded=0;endFill=0;" edge="1" parent="1">
          <mxGeometry width="50" height="50" relative="1" as="geometry">
            <mxPoint x="290" y="290" as="sourcePoint" />
            <mxPoint x="180" y="290" as="targetPoint" />
          </mxGeometry>
        </mxCell>
        <mxCell id="xYyH674Hl-_va3RlvYcr-33" value="" style="endArrow=none;dashed=1;html=1;rounded=0;endFill=0;" edge="1" parent="1">
          <mxGeometry width="50" height="50" relative="1" as="geometry">
            <mxPoint x="370" y="170" as="sourcePoint" />
            <mxPoint x="290" y="290" as="targetPoint" />
          </mxGeometry>
        </mxCell>
        <mxCell id="xYyH674Hl-_va3RlvYcr-34" value="" style="endArrow=none;dashed=1;html=1;rounded=0;endFill=0;" edge="1" parent="1">
          <mxGeometry width="50" height="50" relative="1" as="geometry">
            <mxPoint x="370" y="20" as="sourcePoint" />
            <mxPoint x="370" y="170" as="targetPoint" />
          </mxGeometry>
        </mxCell>
        <mxCell id="xYyH674Hl-_va3RlvYcr-35" value="" style="endArrow=none;dashed=1;html=1;rounded=0;endFill=0;" edge="1" parent="1">
          <mxGeometry width="50" height="50" relative="1" as="geometry">
            <mxPoint x="260" y="20" as="sourcePoint" />
            <mxPoint x="370" y="20" as="targetPoint" />
          </mxGeometry>
        </mxCell>
        <mxCell id="xYyH674Hl-_va3RlvYcr-36" value="" style="endArrow=none;dashed=1;html=1;rounded=0;endFill=0;" edge="1" parent="1">
          <mxGeometry width="50" height="50" relative="1" as="geometry">
            <mxPoint x="270" y="30" as="sourcePoint" />
            <mxPoint x="380" y="30" as="targetPoint" />
          </mxGeometry>
        </mxCell>
        <mxCell id="xYyH674Hl-_va3RlvYcr-37" value="" style="endArrow=none;dashed=1;html=1;rounded=0;endFill=0;" edge="1" parent="1">
          <mxGeometry width="50" height="50" relative="1" as="geometry">
            <mxPoint x="270" y="170" as="sourcePoint" />
            <mxPoint x="270" y="30" as="targetPoint" />
          </mxGeometry>
        </mxCell>
        <mxCell id="xYyH674Hl-_va3RlvYcr-39" value="" style="endArrow=none;dashed=1;html=1;rounded=0;endFill=0;" edge="1" parent="1">
          <mxGeometry width="50" height="50" relative="1" as="geometry">
            <mxPoint x="180" y="230" as="sourcePoint" />
            <mxPoint x="260" y="110" as="targetPoint" />
          </mxGeometry>
        </mxCell>
        <mxCell id="xYyH674Hl-_va3RlvYcr-40" value="" style="endArrow=none;dashed=1;html=1;rounded=0;endFill=0;" edge="1" parent="1">
          <mxGeometry width="50" height="50" relative="1" as="geometry">
            <mxPoint x="460" y="330" as="sourcePoint" />
            <mxPoint x="350" y="330" as="targetPoint" />
          </mxGeometry>
        </mxCell>
        <mxCell id="xYyH674Hl-_va3RlvYcr-41" value="" style="endArrow=none;dashed=1;html=1;rounded=0;endFill=0;" edge="1" parent="1">
          <mxGeometry width="50" height="50" relative="1" as="geometry">
            <mxPoint x="460" y="190" as="sourcePoint" />
            <mxPoint x="460" y="330" as="targetPoint" />
          </mxGeometry>
        </mxCell>
        <mxCell id="xYyH674Hl-_va3RlvYcr-42" value="" style="endArrow=none;dashed=1;html=1;rounded=0;endFill=0;" edge="1" parent="1">
          <mxGeometry width="50" height="50" relative="1" as="geometry">
            <mxPoint x="350" y="330" as="sourcePoint" />
            <mxPoint x="270" y="170" as="targetPoint" />
          </mxGeometry>
        </mxCell>
        <mxCell id="xYyH674Hl-_va3RlvYcr-43" value="" style="endArrow=none;dashed=1;html=1;rounded=0;endFill=0;" edge="1" parent="1">
          <mxGeometry width="50" height="50" relative="1" as="geometry">
            <mxPoint x="380" y="30" as="sourcePoint" />
            <mxPoint x="460" y="190" as="targetPoint" />
          </mxGeometry>
        </mxCell>
        <mxCell id="xYyH674Hl-_va3RlvYcr-44" value="" style="edgeStyle=none;orthogonalLoop=1;jettySize=auto;html=1;rounded=0;" edge="1" parent="1" source="xYyH674Hl-_va3RlvYcr-5" target="xYyH674Hl-_va3RlvYcr-6">
          <mxGeometry width="80" relative="1" as="geometry">
            <mxPoint x="290" y="280" as="sourcePoint" />
            <mxPoint x="370" y="300" as="targetPoint" />
            <Array as="points" />
          </mxGeometry>
        </mxCell>
        <mxCell id="_bz-LzyM7S54jOmXhROr-1" value="" style="endArrow=none;dashed=1;html=1;rounded=0;endFill=0;" edge="1" parent="1">
          <mxGeometry width="50" height="50" relative="1" as="geometry">
            <mxPoint x="480" y="150" as="sourcePoint" />
            <mxPoint x="610" y="150" as="targetPoint" />
          </mxGeometry>
        </mxCell>
        <mxCell id="_bz-LzyM7S54jOmXhROr-2" value="" style="endArrow=none;dashed=1;html=1;rounded=0;endFill=0;" edge="1" parent="1">
          <mxGeometry width="50" height="50" relative="1" as="geometry">
            <mxPoint x="480" y="210" as="sourcePoint" />
            <mxPoint x="480" y="150" as="targetPoint" />
          </mxGeometry>
        </mxCell>
        <mxCell id="_bz-LzyM7S54jOmXhROr-3" value="" style="endArrow=none;dashed=1;html=1;rounded=0;endFill=0;" edge="1" parent="1">
          <mxGeometry width="50" height="50" relative="1" as="geometry">
            <mxPoint x="610" y="210" as="sourcePoint" />
            <mxPoint x="480" y="210" as="targetPoint" />
          </mxGeometry>
        </mxCell>
        <mxCell id="_bz-LzyM7S54jOmXhROr-4" value="" style="endArrow=none;dashed=1;html=1;rounded=0;endFill=0;" edge="1" parent="1">
          <mxGeometry width="50" height="50" relative="1" as="geometry">
            <mxPoint x="610" y="150" as="sourcePoint" />
            <mxPoint x="610" y="210" as="targetPoint" />
          </mxGeometry>
        </mxCell>
        <mxCell id="xYyH674Hl-_va3RlvYcr-1" value="NodeA" style="rounded=0;whiteSpace=wrap;html=1;" vertex="1" parent="1">
          <mxGeometry x="120" y="40" width="80" height="40" as="geometry" />
        </mxCell>
        <mxCell id="xYyH674Hl-_va3RlvYcr-2" value="NodeB" style="rounded=0;whiteSpace=wrap;html=1;" vertex="1" parent="1">
          <mxGeometry x="40" y="160" width="80" height="40" as="geometry" />
        </mxCell>
        <mxCell id="xYyH674Hl-_va3RlvYcr-3" value="NodeC" style="rounded=0;whiteSpace=wrap;html=1;" vertex="1" parent="1">
          <mxGeometry x="280" y="40" width="80" height="40" as="geometry" />
        </mxCell>
        <mxCell id="xYyH674Hl-_va3RlvYcr-4" value="NodeD" style="rounded=0;whiteSpace=wrap;html=1;" vertex="1" parent="1">
          <mxGeometry x="280" y="120" width="80" height="40" as="geometry" />
        </mxCell>
        <mxCell id="xYyH674Hl-_va3RlvYcr-5" value="NodeE" style="rounded=0;whiteSpace=wrap;html=1;" vertex="1" parent="1">
          <mxGeometry x="200" y="240" width="80" height="40" as="geometry" />
        </mxCell>
        <mxCell id="xYyH674Hl-_va3RlvYcr-6" value="NodeF" style="rounded=0;whiteSpace=wrap;html=1;" vertex="1" parent="1">
          <mxGeometry x="360" y="200" width="80" height="40" as="geometry" />
        </mxCell>
        <mxCell id="xYyH674Hl-_va3RlvYcr-7" value="NodeG" style="rounded=0;whiteSpace=wrap;html=1;" vertex="1" parent="1">
          <mxGeometry x="360" y="280" width="80" height="40" as="geometry" />
        </mxCell>
        <mxCell id="xYyH674Hl-_va3RlvYcr-8" value="NodeH" style="rounded=0;whiteSpace=wrap;html=1;" vertex="1" parent="1">
          <mxGeometry x="520" y="160" width="80" height="40" as="geometry" />
        </mxCell>
        <mxCell id="_bz-LzyM7S54jOmXhROr-12" value="" style="edgeStyle=none;orthogonalLoop=1;jettySize=auto;html=1;rounded=0;dashed=1;strokeColor=#FF0000;" edge="1" parent="1" source="_bz-LzyM7S54jOmXhROr-7" target="_bz-LzyM7S54jOmXhROr-9">
          <mxGeometry width="80" relative="1" as="geometry">
            <mxPoint x="130" y="120" as="sourcePoint" />
            <mxPoint x="210" y="120" as="targetPoint" />
            <Array as="points" />
          </mxGeometry>
        </mxCell>
        <mxCell id="_bz-LzyM7S54jOmXhROr-13" value="" style="edgeStyle=none;orthogonalLoop=1;jettySize=auto;html=1;rounded=0;dashed=1;strokeColor=#FF0000;" edge="1" parent="1" source="_bz-LzyM7S54jOmXhROr-9" target="_bz-LzyM7S54jOmXhROr-10">
          <mxGeometry width="80" relative="1" as="geometry">
            <mxPoint x="138" y="136" as="sourcePoint" />
            <mxPoint x="242" y="204" as="targetPoint" />
            <Array as="points" />
          </mxGeometry>
        </mxCell>
        <mxCell id="_bz-LzyM7S54jOmXhROr-14" value="" style="edgeStyle=none;orthogonalLoop=1;jettySize=auto;html=1;rounded=0;dashed=1;strokeColor=#FF0000;" edge="1" parent="1" source="_bz-LzyM7S54jOmXhROr-10" target="_bz-LzyM7S54jOmXhROr-11">
          <mxGeometry width="80" relative="1" as="geometry">
            <mxPoint x="430" y="88" as="sourcePoint" />
            <mxPoint x="570" y="70" as="targetPoint" />
            <Array as="points" />
          </mxGeometry>
        </mxCell>
        <mxCell id="_bz-LzyM7S54jOmXhROr-7" value="1" style="ellipse;whiteSpace=wrap;html=1;aspect=fixed;dashed=1;" vertex="1" parent="1">
          <mxGeometry x="110" y="110" width="20" height="20" as="geometry" />
        </mxCell>
        <mxCell id="_bz-LzyM7S54jOmXhROr-9" value="2" style="ellipse;whiteSpace=wrap;html=1;aspect=fixed;dashed=1;" vertex="1" parent="1">
          <mxGeometry x="250" y="190" width="20" height="20" as="geometry" />
        </mxCell>
        <mxCell id="_bz-LzyM7S54jOmXhROr-10" value="3" style="ellipse;whiteSpace=wrap;html=1;aspect=fixed;dashed=1;" vertex="1" parent="1">
          <mxGeometry x="370" y="170" width="20" height="20" as="geometry" />
        </mxCell>
        <mxCell id="_bz-LzyM7S54jOmXhROr-11" value="4" style="ellipse;whiteSpace=wrap;html=1;aspect=fixed;dashed=1;" vertex="1" parent="1">
          <mxGeometry x="490" y="170" width="20" height="20" as="geometry" />
        </mxCell>
      </root>
    </mxGraphModel>
  </diagram>
</mxfile>
